# xmcd
#
# Track frame offsets: 
#        150
#        15060
#        24552
#        36822
#        46047
#        56575
#        68570
#        78435
#        89432
#        98772
#        108632
#        118280
#        130202
#        139232
#        150580
#        163420
#        173655
#        184160
#        196715
#        208242
#        218745
#        229452
#
# Disc length: 3228 seconds
#
# Revision: 0
# Processed by: cddbd v1.5.2PL0 Copyright (c) Steve Scherf et al.
# Submitted via: ExactAudioCopy v0.99pb4
#
DISCID=2d0c9a16
DTITLE=Charlie Monroe - I'm Old Kentucky Bound - Disc 1
DYEAR=2007
DGENRE=Country
TTITLE0=Once I Had A Darling Mother
TTITLE1=No Home, No Place To Pillow My Head
TTITLE2=Farther Along
TTITLE3=When The World's On Fire (Part 2)
TTITLE4=Take Me Back To The Valley
TTITLE5=Happy Spirit
TTITLE6=The Great Speckled Bird
TTITLE7=Tell Him To Come Back Sweet Fern
TTITLE8=Every Time I Feel
TTITLE9=You're Gonna Miss Me When I'm Gone
TTITLE10=Oh Death
TTITLE11=Guided By Love
TTITLE12=If You See My Saviour
TTITLE13=From Shore To Shore
TTITLE14=Is She Praying There
TTITLE15=Joy Bells In My Soul
TTITLE16=Just One Year
TTITLE17=Black Sheep
TTITLE18=Who's Calling You Sweetheart Tonight
TTITLE19=Rubber Neck Blues
TTITLE20=There's No Depression In Heaven
TTITLE21=Mother's Not Dead, She's Only Sleeping
EXTD=
EXTT0=
EXTT1=
EXTT2=
EXTT3=
EXTT4=
EXTT5=
EXTT6=
EXTT7=
EXTT8=
EXTT9=
EXTT10=
EXTT11=
EXTT12=
EXTT13=
EXTT14=
EXTT15=
EXTT16=
EXTT17=
EXTT18=
EXTT19=
EXTT20=
EXTT21=
PLAYORDER=
